<?xml version="1.0" standalone="no"?>
<!DOCTYPE svg PUBLIC "-//W3C//DTD SVG 20010904//EN"
 "http://www.w3.org/TR/2001/REC-SVG-20010904/DTD/svg10.dtd">
<svg version="1.0" xmlns="http://www.w3.org/2000/svg"
 width="1200.000000pt" height="1200.000000pt" viewBox="0 0 1200.000000 1200.000000"
 preserveAspectRatio="xMidYMid meet">
<metadata>
Created by potrace 1.14, written by Peter Selinger 2001-2017
</metadata>
<g transform="translate(0.000000,1200.000000) scale(0.100000,-0.100000)"
fill="#000000" stroke="none">
<path d="M5820 7805 c-331 -55 -640 -285 -781 -580 -86 -182 -110 -278 -113
-465 -5 -218 57 -431 176 -608 27 -40 47 -76 44 -81 -3 -5 -51 -21 -106 -37
-69 -19 -105 -34 -111 -47 -14 -24 6 -48 35 -43 56 10 727 211 811 242 99 38
183 83 206 113 l20 25 21 -21 c82 -82 -188 -250 -681 -423 -138 -48 -167 -69
-138 -97 13 -13 26 -11 113 17 142 45 406 152 499 201 325 171 378 305 161
410 -53 26 -58 36 -18 33 15 -1 51 -3 80 -3 49 -1 52 -2 38 -17 -32 -31 -8
-64 48 -64 32 0 44 34 22 59 -17 19 -28 20 149 -5 124 -16 303 -97 378 -169
104 -101 85 -206 -64 -356 -77 -77 -88 -100 -52 -113 19 -8 31 -1 90 55 101
95 144 166 159 264 5 34 -15 125 -28 125 -4 0 -8 5 -8 12 0 7 -17 30 -37 51
l-38 39 40 -16 c110 -45 209 -126 247 -201 27 -52 32 -148 11 -213 -18 -57
-13 -82 17 -82 29 0 60 72 64 151 6 108 -21 183 -91 260 l-25 27 21 44 c27 60
68 184 75 228 3 19 8 46 11 60 3 14 7 68 9 120 21 542 -360 1010 -898 1105
-90 16 -259 16 -356 0z m444 -89 c385 -115 639 -389 726 -783 22 -99 20 -304
-3 -403 -25 -107 -73 -230 -89 -230 -5 0 -25 10 -46 23 -66 41 -281 118 -329
119 -2 0 -29 6 -60 13 -32 7 -78 16 -103 20 -25 3 -56 8 -70 10 -14 2 -56 7
-95 10 -38 4 -88 8 -110 11 -22 3 -147 5 -278 5 -247 0 -267 -3 -267 -41 0
-23 7 -25 159 -56 148 -30 231 -52 231 -63 0 -29 -113 -82 -295 -139 -276 -86
-409 -122 -414 -114 -124 179 -195 331 -207 441 -2 13 -6 31 -9 40 -3 8 -8 51
-11 96 l-6 80 69 50 c37 28 74 54 81 58 8 6 32 1 60 -10 45 -19 49 -19 97 -3
45 15 54 15 98 1 44 -14 53 -14 93 1 41 15 49 15 95 0 46 -15 54 -15 94 -1 25
9 46 13 47 10 2 -3 59 -56 128 -116 211 -186 199 -176 220 -165 11 6 20 18 20
27 0 15 -11 27 -83 90 l-37 32 80 61 81 61 44 -17 c41 -15 47 -15 85 0 36 14
44 14 78 0 35 -13 43 -13 83 0 40 14 48 14 87 -1 40 -15 46 -15 79 1 l36 17
134 -91 c113 -76 137 -89 153 -80 30 16 23 42 -18 71 -20 14 -95 65 -167 114
-71 49 -178 121 -237 162 -59 40 -114 73 -123 73 -9 0 -113 -73 -230 -161
l-215 -162 -42 36 c-24 19 -54 45 -69 58 -14 13 -61 56 -104 94 -44 39 -85 75
-91 80 -46 42 -139 121 -148 127 -16 9 -38 -5 -266 -175 -107 -80 -197 -141
-199 -135 -5 15 18 126 40 193 84 248 255 453 480 574 166 90 305 121 509 116
121 -2 160 -7 234 -29z m-723 -698 c35 -31 74 -65 87 -76 12 -11 22 -22 22
-26 0 -10 -33 -7 -77 9 -37 13 -47 13 -89 -2 -44 -15 -50 -15 -94 1 -44 16
-51 16 -85 2 -42 -18 -71 -20 -79 -7 -3 5 46 47 110 94 90 66 120 83 129 74 6
-7 41 -38 76 -69z m1005 -119 c5 -9 2 -10 -12 -4 -69 28 -71 28 -112 12 -37
-15 -44 -15 -81 0 -38 15 -44 15 -86 -2 -26 -9 -49 -14 -52 -11 -6 6 12 22
106 91 l56 42 87 -58 c47 -32 90 -64 94 -70z"/>
<path d="M5807 7613 c-27 -31 -21 -70 23 -136 36 -54 39 -62 26 -75 -8 -9 -30
-16 -48 -18 -99 -7 -137 -78 -77 -143 10 -11 19 -25 19 -31 0 -5 5 -10 10 -10
6 0 10 -6 10 -13 0 -24 66 -87 93 -87 31 0 71 31 86 67 10 25 49 60 55 51 2
-2 22 -31 45 -65 45 -67 75 -84 116 -65 34 16 40 51 23 151 l-14 87 57 39 c63
43 84 73 88 125 5 75 -38 119 -118 123 -34 1 -75 -17 -144 -66 -14 -10 -26 -7
-70 17 -28 16 -60 35 -69 43 -9 8 -34 17 -55 20 -29 4 -42 1 -56 -14z m145
-108 c42 -25 80 -45 87 -45 6 0 42 21 80 46 61 40 73 45 98 37 15 -5 30 -18
31 -27 8 -40 -9 -64 -78 -110 -79 -52 -75 -38 -49 -169 16 -82 10 -84 -37 -12
-26 39 -50 74 -54 79 -12 13 -134 -66 -138 -89 -2 -11 -9 -26 -16 -33 -10 -10
-21 1 -59 57 -43 64 -45 70 -27 76 11 4 29 3 40 0 18 -6 37 6 123 75 9 8 -12
60 -25 60 -4 0 -8 5 -8 11 0 6 -14 29 -31 50 -17 21 -26 39 -21 39 5 0 43 -20
84 -45z"/>
<path d="M6246 6365 c-23 -23 -21 -29 22 -70 41 -40 75 -43 80 -8 4 24 -16 49
-59 77 -25 15 -28 16 -43 1z"/>
<path d="M6293 6174 c-7 -3 -13 -10 -13 -15 0 -6 -9 -23 -21 -38 -23 -32 -16
-62 15 -67 22 -3 78 73 74 101 -3 20 -30 29 -55 19z"/>
<path d="M6155 6010 c-11 -4 -36 -22 -54 -39 l-34 -32 21 -21 21 -21 40 27
c22 16 43 37 47 48 8 27 -15 48 -41 38z"/>
<path d="M7399 5918 c0 -7 -1 -50 -2 -96 -2 -67 1 -82 13 -83 20 0 2789 0
2818 0 21 1 22 4 22 96 l0 95 -1425 0 c-1133 0 -1425 -3 -1426 -12z"/>
<path d="M1750 5815 c0 -83 2 -95 18 -96 22 -1 2825 -1 2832 0 3 1 5 43 4 93
l-1 93 -1426 3 -1427 2 0 -95z"/>
<path d="M5965 5878 c-33 -18 -45 -39 -34 -59 5 -11 18 -19 27 -19 22 0 62 36
62 55 0 22 -32 35 -55 23z"/>
<path d="M5630 5226 c-261 -76 -413 -299 -413 -606 -1 -104 34 -217 89 -292
133 -183 414 -212 632 -66 100 68 197 213 218 327 3 14 7 28 9 31 4 6 18 121
18 145 -2 210 -87 366 -242 438 -58 28 -78 32 -166 34 -61 1 -118 -3 -145 -11z
m245 -130 c74 -37 127 -111 153 -216 2 -8 3 -58 4 -111 1 -278 -144 -473 -358
-484 -98 -4 -155 15 -214 74 -71 71 -93 137 -93 281 -1 175 38 285 132 381
105 106 252 135 376 75z"/>
<path d="M7959 5225 c-87 -23 -162 -67 -235 -140 -96 -96 -144 -194 -169 -350
-6 -36 -7 -172 -1 -200 39 -190 135 -305 292 -351 70 -20 224 -15 294 11 106
39 197 109 259 198 30 45 95 177 86 177 -3 0 0 11 5 24 27 71 29 222 6 336 -8
36 -49 118 -84 166 -37 51 -121 107 -192 128 -63 19 -190 19 -261 1z m211
-112 c89 -29 155 -108 185 -223 16 -61 11 -222 -10 -295 -40 -141 -131 -251
-237 -290 -68 -25 -187 -25 -241 -1 -66 29 -121 94 -147 172 -25 75 -33 207
-17 279 5 22 11 51 13 65 10 51 65 149 111 198 94 98 223 134 343 95z"/>
<path d="M2599 5208 c-1 -30 -5 -60 -14 -128 -9 -68 -13 -100 -19 -170 -3 -30
-7 -64 -10 -75 -2 -11 -7 -47 -10 -80 -3 -33 -8 -76 -11 -95 -3 -19 -7 -55
-10 -80 -3 -25 -7 -61 -10 -80 -3 -19 -7 -53 -10 -75 -2 -22 -7 -60 -10 -85
-3 -25 -7 -61 -9 -80 -2 -19 -5 -39 -6 -45 -8 -36 -6 -37 233 -33 l233 3 67
33 c127 63 180 146 181 283 1 79 -1 89 -28 127 -19 27 -47 51 -82 68 l-54 26
42 23 c72 38 128 106 146 175 6 23 7 112 1 140 -12 61 -57 111 -129 144 -41
19 -67 21 -267 24 l-223 4 -1 -24z m385 -90 c53 -17 77 -41 90 -93 16 -59 4
-135 -27 -177 -12 -17 -42 -42 -66 -56 -41 -24 -57 -27 -169 -30 l-124 -4 7
63 c4 35 9 71 10 79 2 8 6 42 10 75 4 33 8 69 10 80 1 11 3 33 4 48 l1 28 111
-2 c61 -1 125 -6 143 -11z m8 -486 c49 -31 71 -80 64 -146 -6 -66 -17 -94 -49
-128 -48 -52 -81 -61 -233 -66 l-142 -4 3 28 c3 32 15 124 20 164 5 33 17 151
18 169 0 11 27 13 142 9 124 -4 146 -7 177 -26z"/>
<path d="M3479 5228 c-1 -5 -6 -44 -13 -105 -4 -34 -9 -72 -11 -85 -3 -13 -7
-50 -10 -83 -3 -33 -7 -69 -9 -80 -2 -11 -7 -51 -10 -90 -4 -38 -9 -77 -11
-85 -2 -8 -6 -40 -9 -70 -3 -30 -8 -64 -10 -75 -2 -11 -7 -50 -10 -87 -4 -37
-9 -77 -11 -90 -7 -41 -17 -122 -20 -160 l-3 -38 69 0 c47 0 71 4 74 13 4 13
14 93 21 167 2 25 6 59 8 75 2 17 7 55 10 85 4 30 9 64 11 75 2 11 4 30 4 43
l1 22 251 0 250 0 -6 -57 c-4 -32 -8 -69 -10 -83 -2 -14 -6 -50 -9 -80 -4 -30
-8 -66 -11 -80 -2 -14 -6 -50 -10 -81 -3 -31 -8 -66 -10 -78 -4 -20 0 -21 71
-21 70 0 74 1 75 23 0 12 2 31 4 42 5 25 15 105 20 165 3 25 7 61 10 80 2 19
7 55 10 80 3 25 8 65 11 90 3 25 7 61 9 80 3 19 7 53 9 75 9 66 18 138 21 165
3 30 14 114 24 193 l8 57 -74 0 c-63 0 -73 -2 -74 -17 0 -10 -2 -25 -4 -34 -3
-15 -11 -83 -21 -184 -3 -27 -8 -61 -10 -75 -2 -14 -7 -52 -10 -85 -3 -33 -9
-63 -13 -68 -11 -11 -496 -4 -495 8 1 6 5 37 9 70 3 33 8 71 10 85 5 34 18
141 20 165 1 11 6 46 10 78 l7 57 -71 0 c-39 0 -71 -1 -72 -2z"/>
<path d="M4509 5223 c0 -5 -2 -17 -4 -28 -2 -11 -7 -45 -10 -75 -4 -30 -8 -66
-10 -80 -2 -14 -6 -52 -10 -85 -4 -33 -9 -71 -11 -85 -2 -14 -6 -50 -8 -80 -3
-30 -10 -89 -16 -131 -6 -41 -12 -93 -15 -115 -5 -49 -15 -131 -21 -165 -2
-14 -6 -52 -9 -85 -3 -32 -8 -72 -11 -87 l-4 -28 72 3 c65 3 73 5 74 23 1 11
5 43 9 70 3 28 9 70 11 95 7 63 12 109 18 150 3 19 7 50 8 68 l2 32 57 0 c40
0 63 -5 77 -17 17 -15 99 -165 192 -353 14 -28 32 -55 40 -60 8 -5 48 -10 87
-10 l73 0 -34 63 c-18 34 -56 105 -84 157 -27 52 -61 116 -74 141 -14 26 -32
57 -41 70 -20 27 -21 39 -6 39 23 0 103 43 139 76 91 83 129 209 99 328 -20
82 -81 135 -184 162 -54 15 -404 20 -406 7z m336 -104 c88 -24 125 -79 120
-178 -6 -103 -70 -182 -169 -208 -54 -14 -206 -18 -206 -5 0 4 7 61 15 127 8
66 17 145 21 175 4 30 8 62 10 70 1 8 3 18 3 23 1 11 161 8 206 -4z"/>
<path d="M6423 5218 c-1 -20 -12 -120 -17 -143 -2 -11 -7 -49 -11 -85 -3 -36
-8 -76 -10 -90 -2 -14 -6 -52 -10 -85 -3 -33 -8 -71 -11 -85 -2 -14 -6 -50
-10 -80 -3 -30 -7 -71 -10 -90 -7 -51 -10 -77 -18 -150 -4 -36 -9 -76 -11 -90
-2 -14 -7 -51 -10 -82 l-6 -58 61 0 c68 0 67 -1 74 80 3 30 5 55 6 55 1 0 3
16 5 35 1 19 6 60 10 90 4 30 9 70 11 89 2 19 5 48 8 65 3 17 8 58 11 91 3 33
8 71 10 85 2 14 7 52 11 84 3 33 8 67 9 75 2 9 4 30 5 46 1 17 4 23 7 15 7
-18 31 -82 118 -310 36 -96 78 -206 92 -245 35 -92 48 -107 92 -103 40 3 60
27 146 169 28 45 60 98 73 118 12 20 25 44 28 54 4 9 10 17 15 17 5 0 9 5 9
11 0 5 20 40 43 77 24 37 63 100 87 140 23 39 44 72 45 72 3 0 2 -15 -11 -115
-7 -51 -8 -63 -18 -149 -3 -26 -7 -65 -10 -85 -3 -20 -8 -61 -11 -91 -4 -30
-8 -66 -10 -80 -3 -14 -7 -52 -9 -85 -3 -33 -8 -71 -11 -85 -2 -14 -7 -46 -10
-72 l-5 -48 60 0 c32 0 61 3 64 8 2 4 7 34 11 67 3 33 8 74 11 91 3 17 6 46 8
65 7 60 17 143 22 184 3 22 7 51 8 65 2 14 6 52 10 85 9 82 15 132 30 245 11
81 16 124 22 183 l5 57 -65 0 c-52 0 -69 -4 -83 -19 -10 -11 -112 -173 -227
-360 -115 -188 -213 -341 -218 -341 -4 0 -8 11 -8 23 0 13 -3 27 -7 31 -5 4
-8 11 -8 14 -1 8 -50 139 -70 187 -7 17 -41 104 -75 195 -60 162 -83 220 -99
250 -11 20 -147 27 -148 8z"/>
<path d="M8759 5223 c-2 -12 -6 -43 -13 -103 -4 -30 -9 -66 -11 -80 -7 -42
-17 -134 -29 -255 -4 -38 -9 -77 -11 -85 -2 -8 -6 -40 -9 -70 -4 -30 -8 -66
-10 -80 -4 -23 -13 -98 -21 -177 -2 -17 -7 -51 -10 -75 -4 -24 -8 -60 -10 -80
l-3 -38 64 0 c54 0 64 3 65 18 0 9 2 28 4 42 9 67 17 129 20 170 3 25 7 61 10
80 3 19 8 60 11 90 2 30 6 66 9 80 5 32 14 104 19 150 10 95 19 156 23 163 3
4 17 -16 32 -45 29 -55 84 -152 101 -178 6 -8 13 -22 17 -30 4 -8 40 -73 80
-144 40 -71 73 -133 73 -137 0 -5 5 -9 10 -9 6 0 10 -5 10 -10 0 -15 120 -224
133 -232 7 -4 33 -8 60 -8 42 0 47 2 48 23 0 12 2 31 4 42 4 20 14 105 20 160
1 17 5 48 8 70 6 41 14 106 22 185 3 25 7 54 9 65 2 11 7 49 10 85 4 36 8 75
10 85 2 11 7 48 11 82 4 35 9 75 11 90 2 16 6 55 10 88 3 33 9 64 11 68 3 4
-26 7 -63 5 -59 -3 -68 -6 -70 -23 -1 -11 -5 -49 -8 -85 -3 -36 -8 -74 -10
-85 -5 -26 -14 -95 -21 -170 -4 -33 -8 -72 -11 -86 -7 -45 -15 -112 -19 -159
-2 -25 -7 -57 -10 -72 -3 -14 -6 -51 -8 -81 -1 -30 -5 -53 -9 -50 -5 2 -8 8
-8 12 0 5 -25 52 -55 106 -30 53 -55 100 -55 105 0 5 -3 10 -7 12 -5 2 -16 19
-27 38 -78 147 -293 526 -301 532 -13 10 -105 10 -106 1z"/>
</g>
</svg>
